<?xml version="1.0" standalone="no"?>
<!DOCTYPE svg PUBLIC "-//W3C//DTD SVG 20010904//EN"
 "http://www.w3.org/TR/2001/REC-SVG-20010904/DTD/svg10.dtd">
<svg version="1.0" xmlns="http://www.w3.org/2000/svg"
 width="722.000000pt" height="722.000000pt" viewBox="0 0 722.000000 722.000000"
 preserveAspectRatio="xMidYMid meet">
<metadata>
Created by potrace 1.14, written by Peter Selinger 2001-2017
</metadata>
<g transform="translate(0.000000,722.000000) scale(0.100000,-0.100000)"
fill="#000000" stroke="none">
<path d="M2525 5842 c-29 -18 -85 -83 -85 -98 0 -4 -6 -15 -14 -23 -17 -19
-72 -155 -86 -214 -21 -83 -39 -190 -45 -255 -6 -63 -6 -301 -1 -332 3 -14 8
-56 11 -95 7 -67 12 -111 20 -165 7 -50 37 -246 41 -267 8 -47 12 -69 18 -108
3 -22 8 -51 11 -65 3 -14 12 -63 21 -110 9 -47 17 -89 19 -95 1 -5 5 -28 9
-50 5 -22 15 -67 23 -100 8 -33 17 -71 19 -85 2 -14 5 -32 7 -40 12 -54 17
-80 22 -115 3 -22 7 -47 10 -55 2 -8 6 -35 9 -60 3 -25 8 -56 11 -70 3 -14 7
-47 10 -75 2 -27 7 -61 9 -75 4 -23 8 -62 22 -250 11 -152 48 -232 126 -272
59 -31 113 -25 204 20 96 49 173 80 414 166 213 77 209 76 213 75 1 0 36 14
77 31 41 17 76 31 78 30 1 0 18 6 37 14 52 22 297 105 325 110 14 3 61 14 105
26 44 11 91 23 105 25 14 3 39 8 55 11 113 22 183 31 249 33 64 2 76 0 76 -14
0 -15 -61 -135 -83 -162 -5 -7 -7 -13 -3 -13 3 0 -5 -18 -19 -40 -14 -22 -25
-44 -25 -50 0 -5 -4 -10 -10 -10 -5 0 -10 -9 -10 -20 0 -11 -4 -20 -9 -20 -5
0 -11 -8 -14 -17 -3 -10 -20 -43 -38 -73 -45 -79 -166 -294 -205 -367 -19 -34
-47 -85 -64 -113 -16 -28 -30 -55 -30 -60 0 -4 -3 -10 -7 -12 -5 -1 -21 -30
-38 -63 -16 -33 -33 -62 -36 -65 -3 -3 -21 -34 -39 -70 -19 -36 -40 -73 -48
-82 -9 -10 -11 -18 -7 -18 4 0 1 -8 -7 -17 -8 -10 -32 -49 -53 -88 -21 -38
-51 -95 -67 -125 -72 -132 -91 -166 -102 -180 -7 -8 -17 -28 -24 -43 -11 -25
-14 -27 -34 -16 -13 7 -75 64 -138 128 -124 125 -136 139 -191 215 -35 48 -36
51 -21 76 9 14 60 68 113 120 101 100 114 112 219 200 36 30 67 57 70 60 5 5
94 76 115 92 6 4 28 23 51 40 22 18 57 44 77 58 20 14 37 28 37 33 0 4 5 7 11
7 6 0 28 13 49 30 21 17 43 30 49 30 6 0 11 4 11 8 0 5 18 18 40 31 85 47 115
117 91 208 -11 40 -17 44 -116 80 -53 19 -78 21 -110 8 -228 -92 -493 -262
-593 -380 -29 -33 -72 -113 -72 -132 0 -13 -116 -132 -266 -273 -119 -112
-140 -175 -98 -285 16 -41 127 -210 154 -235 3 -3 27 -32 54 -65 144 -180 419
-455 454 -455 6 0 12 -4 14 -9 3 -10 21 -14 53 -12 29 1 107 78 136 133 6 13
15 25 19 28 3 3 17 25 31 50 13 25 26 47 29 50 5 6 42 72 74 135 12 22 24 42
27 45 3 3 12 19 20 35 19 37 96 180 119 220 21 36 58 103 113 205 22 41 44 77
49 78 4 2 8 12 8 22 0 9 7 23 15 30 8 7 15 16 15 21 0 6 87 165 197 359 11 19
39 71 63 115 24 44 55 100 70 125 14 25 34 62 43 82 10 20 22 40 27 43 6 3 10
15 10 26 0 10 4 19 8 19 5 0 38 62 74 138 152 314 171 379 134 449 -16 32 -57
61 -99 69 -48 9 -227 3 -297 -11 -53 -10 -107 -17 -146 -19 -22 -1 -45 -5 -51
-9 -5 -4 -43 -9 -83 -12 -41 -4 -77 -8 -81 -11 -4 -2 -27 -6 -50 -9 -24 -3
-52 -8 -62 -11 -11 -3 -29 -7 -40 -9 -12 -1 -42 -8 -67 -15 -25 -7 -52 -13
-60 -15 -15 -3 -130 -41 -160 -52 -8 -4 -17 -7 -20 -8 -3 -1 -16 -6 -30 -12
-14 -6 -63 -25 -110 -43 -47 -17 -94 -36 -105 -41 -11 -5 -76 -29 -145 -54
-69 -25 -138 -51 -155 -59 -71 -30 -355 -118 -368 -113 -11 4 -15 26 -16 84
-1 43 -3 92 -5 108 -12 96 -20 161 -21 165 -2 8 -16 91 -21 125 -3 17 -9 46
-14 65 -5 19 -12 51 -15 70 -3 19 -10 51 -15 70 -5 19 -11 46 -14 60 -2 14
-14 70 -25 125 -47 236 -63 323 -67 364 -3 24 -7 47 -9 51 -2 3 -7 29 -10 56
-4 27 -8 60 -11 74 -15 88 -24 172 -19 180 3 6 2 10 -3 10 -5 0 -10 24 -11 54
-1 30 -5 67 -8 82 -9 43 -9 411 0 469 10 59 27 145 32 163 3 9 26 -1 72 -30
38 -23 73 -46 78 -50 6 -5 28 -22 50 -38 22 -16 45 -33 50 -38 40 -32 196
-138 271 -184 79 -49 136 -78 259 -134 42 -19 239 -94 246 -94 4 0 24 -8 45
-17 22 -9 44 -18 49 -19 11 -2 108 -39 140 -53 11 -5 63 -26 115 -46 238 -92
406 -179 635 -330 251 -166 308 -214 244 -207 -52 6 -117 15 -169 24 -90 14
-110 17 -150 23 -19 2 -51 7 -70 10 -19 2 -55 7 -80 11 -25 3 -54 7 -65 8 -29
5 -118 15 -172 21 -27 3 -68 7 -93 11 -25 3 -67 7 -95 9 -27 2 -79 6 -115 9
-165 15 -266 23 -435 32 -125 7 -410 7 -440 0 -11 -2 -28 -5 -37 -5 -9 -1 -31
-16 -47 -33 -38 -41 -42 -101 -10 -158 40 -71 88 -83 384 -95 193 -8 344 -17
490 -30 22 -2 74 -6 115 -9 41 -3 86 -8 100 -10 14 -3 55 -7 92 -11 37 -3 77
-8 90 -10 13 -2 50 -6 83 -10 79 -9 123 -14 154 -19 14 -3 46 -7 71 -11 55 -8
89 -14 115 -19 11 -2 40 -7 65 -11 25 -4 81 -16 125 -27 260 -64 331 -73 410
-50 46 13 138 90 161 135 22 41 13 119 -20 186 -28 54 -161 196 -271 288 -134
112 -357 266 -467 324 -134 70 -313 155 -428 204 -94 39 -99 42 -160 65 -87
35 -115 45 -295 111 -259 96 -451 200 -693 376 -325 236 -351 251 -437 260
-27 2 -50 -3 -70 -15z"/>
</g>
</svg>
