<?xml version="1.0" standalone="no"?>
<!DOCTYPE svg PUBLIC "-//W3C//DTD SVG 20010904//EN"
 "http://www.w3.org/TR/2001/REC-SVG-20010904/DTD/svg10.dtd">
<svg version="1.0" xmlns="http://www.w3.org/2000/svg"
 width="236.000000pt" height="271.000000pt" viewBox="0 0 236.000000 271.000000"
 preserveAspectRatio="xMidYMid meet">

<g transform="translate(0.000000,271.000000) scale(0.100000,-0.100000)"
fill="#000000" stroke="none">
<path d="M758 2183 c-55 -62 -84 -195 -74 -328 9 -109 40 -297 72 -435 14 -63
29 -166 34 -228 6 -98 10 -116 30 -137 27 -29 60 -32 96 -9 14 9 73 34 132 54
59 21 155 56 214 79 108 42 308 79 308 58 0 -6 -55 -107 -122 -226 -67 -119
-146 -261 -176 -316 -29 -55 -57 -104 -61 -108 -8 -8 -124 112 -143 148 -11
19 210 210 324 280 27 17 33 27 33 55 0 30 -4 36 -38 49 -37 14 -40 13 -112
-24 -113 -59 -178 -115 -187 -164 -2 -8 -33 -41 -71 -74 -74 -65 -85 -88 -64
-138 30 -71 229 -289 264 -289 30 0 54 32 150 210 50 91 134 244 188 340 122
216 166 315 156 344 -16 44 -46 48 -202 26 -170 -23 -187 -28 -344 -90 -107
-42 -245 -90 -260 -90 -3 0 -5 24 -5 53 0 30 -11 105 -25 168 -65 294 -91 498
-75 607 5 35 11 66 13 69 3 2 42 -23 87 -57 112 -83 156 -107 263 -147 192
-71 254 -97 322 -136 75 -43 184 -118 185 -128 0 -3 -35 1 -77 8 -245 42 -638
68 -667 44 -23 -19 -25 -49 -6 -74 18 -23 27 -24 179 -30 181 -8 446 -39 536
-64 105 -28 137 -28 172 1 40 33 45 55 23 103 -18 41 -124 134 -229 201 -75
48 -215 113 -341 157 -152 54 -200 81 -367 206 -70 52 -109 61 -135 32z"/>
</g>
</svg>
