<?xml version="1.0" standalone="no"?>
<!DOCTYPE svg PUBLIC "-//W3C//DTD SVG 20010904//EN"
 "http://www.w3.org/TR/2001/REC-SVG-20010904/DTD/svg10.dtd">
<svg version="1.0" xmlns="http://www.w3.org/2000/svg"
 width="256.000000pt" height="256.000000pt" viewBox="0 0 256.000000 256.000000"
 preserveAspectRatio="xMidYMid meet">
<metadata>
Created by potrace 1.14, written by Peter Selinger 2001-2017
</metadata>
<g transform="translate(0.000000,256.000000) scale(0.100000,-0.100000)"
fill="#000000" stroke="none">
<path d="M1035 2310 c-27 -11 -57 -20 -66 -20 -26 0 -173 -73 -207 -103 -9 -8
-45 -29 -78 -45 -54 -27 -68 -41 -117 -114 -106 -159 -125 -243 -95 -415 10
-58 29 -134 42 -167 16 -41 26 -91 29 -151 3 -49 13 -117 21 -150 9 -32 16
-74 16 -92 0 -23 5 -33 16 -33 28 0 44 -27 44 -74 0 -25 5 -46 10 -46 6 0 10
23 10 50 0 28 5 50 10 50 6 0 10 9 10 20 0 29 28 25 60 -10 15 -16 35 -30 44
-30 9 0 16 -4 16 -10 0 -6 37 -10 90 -10 53 0 90 4 90 10 0 6 13 10 28 10 16
0 34 8 42 20 8 11 20 20 28 20 18 0 62 46 62 65 0 8 5 15 10 15 6 0 10 14 10
30 0 17 5 30 10 30 6 0 10 21 10 46 0 54 16 74 60 74 34 0 60 -19 60 -44 0 -9
5 -16 10 -16 6 0 10 -18 10 -40 0 -22 5 -40 10 -40 6 0 10 -7 10 -15 0 -18 64
-85 80 -85 6 0 22 -11 36 -25 22 -22 23 -27 10 -40 -21 -21 -59 -19 -76 5 -8
11 -20 20 -28 20 -18 0 -42 -25 -42 -44 0 -11 -9 -16 -30 -16 -16 0 -30 -4
-30 -10 0 -5 -9 -10 -20 -10 -11 0 -20 5 -20 10 0 6 -8 10 -18 10 -10 0 -24 9
-32 20 -19 26 -50 26 -50 0 0 -16 -7 -20 -30 -20 -28 0 -30 -3 -30 -36 0 -49
-19 -64 -80 -64 -56 0 -97 24 -69 40 7 5 10 12 7 15 -4 4 -23 -9 -42 -29 -32
-31 -36 -41 -36 -86 0 -53 15 -80 44 -80 9 0 16 5 16 10 0 22 53 9 80 -20 15
-16 35 -30 44 -30 9 0 16 -4 16 -10 0 -5 9 -10 20 -10 11 0 20 -4 20 -10 0 -5
9 -10 20 -10 11 0 20 5 20 10 0 6 18 10 40 10 22 0 40 5 40 10 0 14 -78 12
-82 -2 -5 -14 -58 34 -58 52 0 27 30 40 94 40 37 0 66 4 66 10 0 6 9 10 20 10
11 0 20 -4 20 -10 0 -5 9 -10 20 -10 11 0 20 5 20 10 0 6 30 10 70 10 40 0 70
-4 70 -10 0 -5 14 -10 30 -10 27 0 30 -3 30 -30 0 -27 -3 -30 -30 -30 -16 0
-30 -4 -30 -10 0 -5 -13 -10 -30 -10 -16 0 -30 -4 -30 -10 0 -6 27 -10 60 -10
33 0 60 4 60 10 0 6 7 10 16 10 8 0 37 23 64 50 44 46 53 50 94 50 l46 0 0 46
c0 26 -6 51 -14 60 -20 19 -26 18 -26 -6 0 -11 -4 -20 -10 -20 -5 0 -10 5 -10
10 0 6 -27 10 -60 10 -33 0 -60 4 -60 10 0 6 -7 10 -16 10 -8 0 -22 6 -30 14
-16 17 -19 46 -4 46 6 0 10 14 10 30 0 27 3 30 30 30 17 0 30 -4 30 -10 0 -5
18 -10 40 -10 22 0 40 5 40 10 0 6 9 10 20 10 11 0 20 5 20 10 0 6 -33 10 -80
10 -47 0 -80 4 -80 10 0 6 -12 10 -26 10 -27 0 -61 26 -50 38 4 3 11 0 16 -8
5 -8 12 -11 16 -7 4 4 -3 15 -14 26 -12 10 -22 25 -22 34 0 8 -6 18 -12 21
-10 5 -10 7 0 12 6 3 12 19 12 35 0 28 1 29 50 29 43 0 50 -3 50 -20 0 -17 7
-20 40 -20 22 0 40 5 40 10 0 6 7 10 15 10 20 0 65 45 65 65 0 8 -7 15 -15 15
-9 0 -27 11 -41 25 -22 22 -23 27 -10 40 8 8 24 15 36 15 28 0 110 -83 110
-113 0 -12 9 -29 20 -37 21 -15 28 -50 10 -50 -5 0 -10 -12 -10 -26 0 -16 -12
-37 -30 -54 -16 -15 -30 -31 -30 -34 0 -14 34 -4 51 15 16 19 20 20 34 6 12
-12 15 -41 15 -141 0 -77 -4 -126 -10 -126 -5 0 -10 -13 -10 -30 0 -16 -4 -30
-10 -30 -5 0 -10 -8 -10 -18 0 -10 -9 -24 -20 -32 -11 -8 -20 -21 -20 -30 0
-9 -9 -22 -20 -30 -11 -8 -20 -22 -20 -32 0 -10 -4 -18 -10 -18 -5 0 -10 -8
-10 -18 0 -10 -9 -24 -20 -32 -11 -8 -20 -22 -20 -32 0 -10 -4 -18 -10 -18 -5
0 -10 -9 -10 -20 0 -11 -4 -20 -10 -20 -5 0 -10 -13 -10 -28 0 -16 -8 -34 -20
-42 -11 -8 -20 -22 -20 -32 0 -11 -7 -18 -20 -18 -11 0 -20 -4 -20 -10 0 -5
-13 -10 -28 -10 -16 0 -34 -8 -42 -20 -8 -11 -21 -20 -30 -20 -9 0 -22 -9 -30
-20 -12 -16 -26 -20 -72 -20 -32 0 -58 -4 -58 -10 0 -6 -30 -10 -70 -10 -40 0
-70 4 -70 10 0 6 -7 10 -16 10 -9 0 -29 14 -44 30 -15 17 -38 30 -50 30 -25 0
-50 22 -50 44 0 9 -4 16 -10 16 -5 0 -10 9 -10 20 0 11 -4 20 -10 20 -5 0 -10
9 -10 20 0 11 -4 20 -10 20 -5 0 -10 9 -10 20 0 11 -4 20 -10 20 -5 0 -10 8
-10 18 0 10 -9 24 -20 32 -11 8 -20 21 -20 30 0 9 -9 22 -20 30 -11 8 -20 22
-20 32 0 10 -4 18 -10 18 -5 0 -10 9 -10 20 0 11 -4 20 -10 20 -5 0 -10 8 -10
18 0 10 -9 24 -20 32 -11 8 -20 22 -20 32 0 10 -4 18 -10 18 -5 0 -10 9 -10
20 0 11 -4 20 -10 20 -5 0 -10 9 -10 20 0 11 -4 20 -10 20 -5 0 -10 9 -10 20
0 11 -4 20 -10 20 -5 0 -10 -13 -10 -30 0 -16 5 -30 10 -30 6 0 10 -18 10 -40
0 -22 5 -40 10 -40 6 0 10 -18 10 -40 0 -22 3 -40 8 -40 12 0 41 -71 58 -145
9 -38 23 -81 29 -95 7 -14 20 -63 30 -109 14 -70 22 -89 51 -117 18 -19 38
-34 45 -34 6 0 24 -14 39 -30 15 -17 35 -30 44 -30 9 0 16 -4 16 -10 0 -5 23
-10 50 -10 28 0 50 -4 50 -10 0 -5 9 -10 20 -10 11 0 20 -4 20 -10 0 -6 40
-10 100 -10 60 0 100 -4 100 -10 0 -5 14 -10 30 -10 17 0 30 5 30 10 0 6 30
10 70 10 40 0 70 4 70 10 0 6 7 10 16 10 9 0 29 14 44 30 15 17 35 30 43 30 9
0 18 6 21 13 5 9 7 9 12 0 10 -23 24 -13 24 17 0 17 5 30 10 30 6 0 10 20 10
44 0 25 14 84 30 133 17 48 37 117 46 153 31 129 46 165 88 210 94 100 129
291 74 398 -42 80 -52 150 -37 246 7 44 11 144 10 220 -3 139 -3 139 -45 239
-75 174 -188 302 -328 373 -29 14 -60 32 -68 38 -18 14 -71 32 -124 41 -22 4
-61 18 -88 31 -62 31 -187 33 -263 4z m345 -420 c0 -5 9 -10 20 -10 11 0 20
-4 20 -10 0 -5 14 -10 30 -10 17 0 30 -4 30 -10 0 -5 9 -10 20 -10 11 0 20 -4
20 -10 0 -5 9 -10 20 -10 11 0 20 -4 20 -10 0 -5 7 -10 15 -10 27 0 145 -127
145 -155 0 -14 5 -25 10 -25 6 0 10 -13 10 -30 0 -16 5 -30 10 -30 6 0 10 -13
10 -30 0 -16 5 -30 10 -30 6 0 10 -13 10 -30 0 -16 5 -30 10 -30 6 0 10 -4 10
-10 0 -5 -9 -10 -20 -10 -11 0 -20 5 -20 10 0 6 -13 10 -30 10 -16 0 -30 5
-30 10 0 6 -13 10 -30 10 -16 0 -30 5 -30 10 0 6 -33 10 -80 10 -47 0 -80 -4
-80 -10 0 -5 -7 -10 -16 -10 -18 0 -44 -23 -44 -40 0 -6 -16 -27 -36 -46 l-35
-36 -21 24 c-14 15 -22 19 -25 11 -3 -9 -30 -13 -84 -13 -46 0 -79 -4 -79 -10
0 -5 -9 -10 -20 -10 -13 0 -20 7 -20 20 0 17 -7 20 -40 20 -22 0 -40 -4 -40
-10 0 -5 5 -10 10 -10 6 0 10 -30 10 -70 l0 -70 -46 0 c-44 0 -74 16 -74 40 0
19 -33 47 -38 32 -2 -6 -12 -12 -23 -12 -10 0 -19 -4 -19 -10 0 -5 -9 -10 -20
-10 -16 0 -20 -7 -20 -36 0 -19 6 -42 14 -50 17 -16 46 -19 46 -4 0 6 9 10 20
10 11 0 20 -4 20 -10 0 -5 14 -10 30 -10 17 0 30 5 30 10 0 6 -4 10 -10 10 -5
0 -10 5 -10 10 0 6 25 10 55 10 47 0 60 -4 83 -27 17 -17 22 -28 14 -31 -7 -2
-12 -12 -12 -23 0 -10 -4 -19 -10 -19 -5 0 -10 -7 -10 -15 0 -26 -66 -85 -95
-85 -14 0 -25 -4 -25 -10 0 -6 -30 -10 -70 -10 -40 0 -70 4 -70 10 0 6 -7 10
-16 10 -20 0 -44 24 -44 44 0 9 -4 16 -10 16 -6 0 -10 33 -10 80 0 47 4 80 10
80 6 0 10 7 10 15 0 20 85 105 105 105 18 0 20 17 3 23 -8 2 -9 8 -4 13 5 5
11 4 13 -3 3 -7 13 -13 24 -13 10 0 19 -4 19 -10 0 -5 5 -10 10 -10 6 0 10 9
10 20 0 17 7 20 40 20 22 0 40 5 40 10 0 6 9 10 20 10 24 0 25 6 6 26 -20 19
-26 18 -26 -6 0 -11 -4 -20 -8 -20 -4 0 -14 9 -22 20 -15 21 -50 28 -50 10 0
-5 -22 -10 -50 -10 -27 0 -50 -4 -50 -10 0 -5 -18 -10 -39 -10 -22 0 -41 -5
-43 -12 -3 -9 -9 -8 -21 4 -19 18 -23 48 -7 48 6 0 10 33 10 80 0 47 4 80 10
80 6 0 10 9 10 20 0 11 5 20 10 20 6 0 10 7 10 15 0 19 124 145 143 145 7 0
19 9 27 20 8 12 26 20 42 20 15 0 28 5 28 10 0 6 9 10 20 10 11 0 20 5 20 10
0 6 14 10 30 10 17 0 30 5 30 10 0 6 53 10 140 10 87 0 140 -4 140 -10z m140
-510 c0 -11 5 -20 10 -20 6 0 10 -9 10 -19 0 -11 6 -22 13 -25 10 -5 10 -7 0
-12 -7 -3 -13 -14 -13 -25 0 -16 -7 -19 -56 -19 -61 0 -101 22 -73 42 11 7 11
11 2 15 -7 2 -13 18 -13 34 0 22 5 29 20 29 11 0 20 5 20 10 0 6 18 10 40 10
33 0 40 -3 40 -20z m266 -34 c16 -17 19 -46 4 -46 -5 0 -10 9 -10 20 0 11 -4
20 -10 20 -5 0 -10 5 -10 10 0 14 9 12 26 -4z m34 -76 c0 -5 -4 -10 -10 -10
-5 0 -10 5 -10 10 0 6 5 10 10 10 6 0 10 -4 10 -10z m-1120 -80 c0 -5 -4 -10
-10 -10 -5 0 -10 5 -10 10 0 6 5 10 10 10 6 0 10 -4 10 -10z m1240 -240 c0
-23 -4 -30 -20 -30 -16 0 -20 7 -20 30 0 23 4 30 20 30 16 0 20 -7 20 -30z
m-716 -122 c5 -10 7 -10 12 0 7 15 184 17 184 2 0 -5 14 -10 30 -10 17 0 30
-4 30 -10 0 -6 -27 -10 -60 -10 -33 0 -60 -4 -60 -10 0 -6 -60 -10 -160 -10
-100 0 -160 -4 -160 -10 0 -5 -9 -10 -20 -10 -13 0 -20 7 -20 20 0 13 7 20 20
20 11 0 20 5 20 10 0 6 27 10 60 10 33 0 60 4 60 10 0 15 57 12 64 -2z m516
-278 c0 -5 -4 -10 -10 -10 -5 0 -10 5 -10 10 0 6 5 10 10 10 6 0 10 -4 10 -10z"/>
<path d="M1500 1190 c0 -5 5 -10 10 -10 6 0 10 5 10 10 0 6 -4 10 -10 10 -5 0
-10 -4 -10 -10z"/>
<path d="M1600 950 c0 -5 5 -10 10 -10 6 0 10 5 10 10 0 6 -4 10 -10 10 -5 0
-10 -4 -10 -10z"/>
<path d="M1103 555 c-32 -34 -30 -55 5 -55 16 0 34 -8 42 -20 8 -11 26 -20 41
-20 15 0 30 -6 33 -12 5 -10 7 -10 12 0 3 6 14 12 24 12 10 0 21 -6 24 -12 5
-10 7 -10 12 0 3 7 27 12 63 12 45 0 59 4 71 20 8 11 22 20 32 20 13 0 18 8
18 30 0 23 -4 30 -20 30 -11 0 -20 5 -20 10 0 6 -9 10 -20 10 -11 0 -20 -4
-20 -10 0 -5 -9 -10 -20 -10 -11 0 -20 -4 -20 -10 0 -15 -137 -13 -143 3 -4 9
-8 8 -17 -3 -9 -11 -13 -12 -17 -2 -2 6 -13 12 -24 12 -10 0 -19 5 -19 10 0
16 -13 11 -37 -15z"/>
<path d="M1740 130 c0 -5 5 -10 11 -10 5 0 7 5 4 10 -3 6 -8 10 -11 10 -2 0
-4 -4 -4 -10z"/>
<path d="M1733 85 c-7 -8 -13 -28 -13 -45 0 -25 4 -31 18 -28 12 2 18 15 20
46 3 44 -4 51 -25 27z"/>
</g>
</svg>
