<svg width="100" height="100" viewBox="0 0 100 100" fill="none" xmlns="http://www.w3.org/2000/svg">
<g id="docker" clip-path="url(#clip0_790_7802)">
<path id="Vector" d="M99 41.1C98.7 40.9 96.2 39 90.9 39C89.5 39 88.1 39.1 86.7 39.4C85.7 32.3 79.8 28.9 79.5 28.7L78.1 27.9L77.2 29.3C76 31.1 75.2 33.1 74.7 35.3C73.7 39.3 74.3 43.1 76.4 46.4C73.9 47.8 69.9 48.1 69.1 48.2H3.09999C1.39999 48 -8.33534e-06 49.4 -8.33534e-06 51.1C-0.100008 56.8 0.899992 62.6 2.89999 68C5.19999 74 8.49999 78.3 12.9 81C17.8 84 25.8 85.7 34.9 85.7C39 85.7 43.1 85.3 47.1 84.6C52.7 83.6 58.1 81.6 63 78.8C67.1 76.4 70.8 73.4 73.9 69.9C79.1 64 82.2 57.4 84.5 51.6H85.4C91.1 51.6 94.6 49.3 96.6 47.4C97.9 46.2 98.9 44.7 99.5 43L99.9 41.8L99 41.1Z" fill="#7D7D7D"/>
<path id="Vector_2" d="M9.20002 46H18C18.4 46 18.8 45.7 18.8 45.2V37.3C18.8 36.9 18.5 36.5 18 36.5H9.20002C8.80002 36.5 8.40002 36.8 8.40002 37.3V45.2C8.50002 45.7 8.80002 46 9.20002 46Z" fill="#7D7D7D"/>
<path id="Vector_3" d="M21.4 46H30.2C30.6 46 31 45.7 31 45.2V37.3C31 36.9 30.7 36.5 30.2 36.5H21.4C21 36.5 20.6 36.8 20.6 37.3V45.2C20.6 45.7 21 46 21.4 46Z" fill="#7D7D7D"/>
<path id="Vector_4" d="M33.7 46H42.5C42.9 46 43.3 45.7 43.3 45.2V37.3C43.3 36.9 43 36.5 42.5 36.5H33.7C33.3 36.5 32.9 36.8 32.9 37.3V45.2C33 45.7 33.3 46 33.7 46Z" fill="#7D7D7D"/>
<path id="Vector_5" d="M46 46H54.7999C55.1999 46 55.5999 45.7 55.5999 45.2V37.3C55.5999 36.9 55.2999 36.5 54.7999 36.5H46C45.6 36.5 45.2 36.8 45.2 37.3V45.2C45.2 45.7 45.5 46 46 46Z" fill="#7D7D7D"/>
<path id="Vector_6" d="M21.4 34.7H30.2C30.6 34.7 31 34.4 31 33.9V26C31 25.6 30.7 25.2 30.2 25.2H21.4C21 25.2 20.6 25.5 20.6 26V33.9C20.6 34.4 21 34.7 21.4 34.7Z" fill="#7D7D7D"/>
<path id="Vector_7" d="M33.7 34.7H42.5C42.9 34.7 43.3 34.4 43.3 33.9V26C43.3 25.6 43 25.2 42.5 25.2H33.7C33.3 25.2 32.9 25.5 32.9 26V33.9C33 34.4 33.3 34.7 33.7 34.7Z" fill="#7D7D7D"/>
<path id="Vector_8" d="M46 34.7H54.7999C55.1999 34.7 55.5999 34.4 55.5999 33.9V26C55.5999 25.6 55.2999 25.2 54.7999 25.2H46C45.6 25.2 45.2 25.5 45.2 26V33.9C45.2 34.4 45.5 34.7 46 34.7Z" fill="#7D7D7D"/>
<path id="Vector_9" d="M46 23.4H54.7999C55.1999 23.4 55.5999 23.1 55.5999 22.6V14.7C55.5999 14.3 55.2999 13.9 54.7999 13.9H46C45.6 13.9 45.2 14.2 45.2 14.7V22.6C45.2 23.1 45.5 23.4 46 23.4Z" fill="#7D7D7D"/>
<path id="Vector_10" d="M58.3 46H67.1C67.5 46 67.9 45.7 67.9 45.2V37.3C67.9 36.9 67.6 36.5 67.1 36.5H58.3C57.9 36.5 57.5 36.8 57.5 37.3V45.2C57.5 45.7 57.8 46 58.3 46Z" fill="#7D7D7D"/>
</g>
<defs>
<clipPath id="clip0_790_7802">
<rect width="100" height="100" fill="white"/>
</clipPath>
</defs>
</svg>
