<svg width="100" height="100" viewBox="0 0 100 100" fill="none" xmlns="http://www.w3.org/2000/svg">
<g id="git" clip-path="url(#clip0_790_8031)">
<path id="Vector" d="M98.1 45.5L54.5 1.90002C52 -0.599976 47.9 -0.599976 45.4 1.90002L36.3 11L47.8 22.5C50.5 21.6 53.5 22.2 55.7 24.3C57.8 26.4 58.4 29.5 57.5 32.2L68.6 43.3C71.3 42.4 74.4 43 76.5 45.1C79.5 48.1 79.5 52.9 76.5 55.9C73.5 58.9 68.7 58.9 65.7 55.9C63.4 53.6 62.9 50.3 64 47.6L53.6 37.3V64.5C54.3 64.9 55 65.4 55.6 65.9C58.6 68.9 58.6 73.7 55.6 76.7C52.6 79.7 47.8 79.7 44.8 76.7C41.8 73.7 41.8 68.9 44.8 65.9C45.5 65.2 46.4 64.6 47.3 64.2V36.8C46.4 36.4 45.5 35.8 44.8 35.1C42.5 32.8 42 29.5 43.1 26.7L31.8 15.4L1.89999 45.3C-0.600006 47.8 -0.600006 51.9 1.89999 54.4L45.6 98.1C48.1 100.6 52.2 100.6 54.7 98.1L98.2 54.6C100.6 52.1 100.6 48.1 98.1 45.5Z" fill="#757575"/>
</g>
<defs>
<clipPath id="clip0_790_8031">
<rect width="100" height="100" fill="white"/>
</clipPath>
</defs>
</svg>
