<svg width="100" height="100" viewBox="0 0 100 100" fill="none" xmlns="http://www.w3.org/2000/svg">
<g id="vscode">
<path id="Vector" d="M1.00002 35.5001C1.00002 35.5001 -1.39998 33.7001 1.50002 31.4001L8.30002 25.3001C8.30002 25.3001 10.2 23.3001 12.3 25.0001L75.1 72.6001V95.4001C75.1 95.4001 75.1 99.0001 70.5 98.6001L1.00002 35.5001Z" fill="#727272"/>
<path id="Vector_2" d="M17.1 50.2L1 64.9C1 64.9 -0.699999 66.1 1 68.4L8.5 75.1999C8.5 75.1999 10.3 77.1 12.9 74.9L30.1 61.9L17.1 50.2Z" fill="#5B5B5B"/>
<path id="Vector_3" d="M45.6 50.3L75.3 27.6L75.1 4.99999C75.1 4.99999 73.8 -6.07967e-06 69.6 2.59999L30.1 38.6L45.6 50.3Z" fill="#5D5D5D"/>
<path id="Vector_4" d="M70.5 98.6999C72.2 100.5 74.3 99.8999 74.3 99.8999L97.4 88.4999C100.4 86.4999 99.9 83.9999 99.9 83.9999V15.7999C99.9 12.7999 96.8 11.7999 96.8 11.7999L76.9 2.09989C72.5 -0.600106 69.6 2.59989 69.6 2.59989C69.6 2.59989 73.3 -0.100106 75.1 4.99989V94.9999C75.1 95.5999 75 96.1999 74.7 96.7999C74.2 97.8999 73 98.8999 70.3 98.3999L70.5 98.6999Z" fill="#848484"/>
</g>
</svg>
