<svg width="100" height="100" viewBox="0 0 100 100" fill="none" xmlns="http://www.w3.org/2000/svg">
<g id="figma">
<path id="Vector" d="M33.3 100C42.5 100 50 92.5 50 83.3V66.7H33.3C24.1 66.7 16.6 74.2 16.6 83.4C16.6 92.6 24.1 100 33.3 100Z" fill="#8C8C8C"/>
<path id="Vector_2" d="M16.7 50C16.7 40.8 24.2 33.3 33.4 33.3H50V66.6H33.2999C24.0999 66.7 16.7 59.2001 16.7 50Z" fill="#818181"/>
<path id="Vector_3" d="M16.7 16.7C16.7 7.5 24.0999 0 33.2999 0H50V33.3H33.2999C24.0999 33.3 16.7 25.9 16.7 16.7Z" fill="#7A7A7A"/>
<path id="Vector_4" d="M50 0H66.7C75.9 0 83.4 7.5 83.4 16.7C83.4 25.9 75.9 33.4 66.7 33.4H50V0Z" fill="#9B9B9B"/>
<path id="Vector_5" d="M83.3 50C83.3 59.2001 75.8 66.7 66.6 66.7C57.4 66.7 50 59.2001 50 50C50 40.8 57.5 33.3 66.7 33.3C75.9 33.3 83.3 40.8 83.3 50Z" fill="#939393"/>
</g>
</svg>
