<svg width="100" height="100" viewBox="0 0 100 100" fill="none" xmlns="http://www.w3.org/2000/svg">
<g id="cloudflare" clip-path="url(#clip0_790_7714)">
<g id="Group">
<g id="Clip path group">
<mask id="mask0_790_7714" style="mask-type:luminance" maskUnits="userSpaceOnUse" x="0" y="0" width="100" height="100">
<g id="SVGID_00000018216113296559398310000014383555227657564313_">
<path id="Vector" d="M100 0H0V100H100V0Z" fill="white"/>
</g>
</mask>
<g mask="url(#mask0_790_7714)">
<g id="Group_2">
<path id="Vector_2" d="M79 46.3L77 45.5C67.2 67.4 28.5 54.1 26.1 60.6C25.7 65 47.3 61.4 62.7 62.2C67.4 62.4 69.8 66 67.8 71.8H71.7C76.2 57.7 90.7 64.9 91.3 60.2C90.3 57.1 74.7 60.2 79 46.3Z" fill="white"/>
<path id="Vector_3" d="M68.9 69.3C69.5 67.2 69.3 65.2 68.3 63.9C67.3 62.7 65.8 61.8 63.9 61.6L27.8 61.2C27.6 61.2 27.4 61 27.2 61C27 60.8 27 60.6 27.2 60.4C27.4 60 27.6 59.8 28 59.8L64.3 59.4C68.7 59.2 73.2 55.7 74.9 51.5L77 46.1C77 45.9 77.2 45.7 77 45.5C74.7 34.9 65.1 27 53.9 27C43.5 27 34.6 33.6 31.5 43C29.4 41.5 26.9 40.7 24 40.9C19 41.3 15.1 45.5 14.5 50.4C14.3 51.6 14.5 52.9 14.7 54.1C6.6 54.4 0 61 0 69.3C0 70.1 0 70.8 0.2 71.6C0.2 72 0.6 72.2 0.8 72.2H67.4C67.8 72.2 68.2 72 68.2 71.6L68.9 69.3Z" fill="#999999"/>
<path id="Vector_4" d="M80.3 46.1H79.3C79.1 46.1 78.9 46.3 78.7 46.5L77.2 51.5C76.6 53.6 76.8 55.6 77.8 56.9C78.8 58.1 80.3 59 82.2 59.2L89.9 59.6C90.1 59.6 90.3 59.8 90.5 59.8C90.7 60 90.7 60.2 90.5 60.4C90.2 60.8 90 61 89.6 61L81.7 61.4C77.3 61.6 72.8 65.1 71.1 69.3L70.7 71.2C70.5 71.4 70.7 71.8 71.1 71.8H98.5C98.9 71.8 99.1 71.6 99.1 71.2C99.5 69.5 99.9 67.7 99.9 65.8C100 55 91.1 46.1 80.3 46.1Z" fill="#B8B8B8"/>
</g>
</g>
</g>
</g>
</g>
<defs>
<clipPath id="clip0_790_7714">
<rect width="100" height="100" fill="white"/>
</clipPath>
</defs>
</svg>
