<svg width="100" height="100" viewBox="0 0 100 100" fill="none" xmlns="http://www.w3.org/2000/svg">
<g id="mongodb" clip-path="url(#clip0_790_10103)">
<path id="Vector" d="M50.1 0.300049L52.8 5.30005C53.4 6.20005 54 7.00005 54.8 7.80005C57 10 59.1 12.4 61.1 14.9C65.6 20.8 68.7 27.4 70.8 34.6C72.1 39 72.8 43.4001 72.9 47.9001C73.1 61.4001 68.5 73 59.2 82.6C57.7 84.1 56 85.5 54.3 86.8C53.4 86.8 52.9 86.1 52.6 85.4C51.9 84.2001 51.4 82.9 51.2 81.5C50.9 79.9 50.7 78.2 50.8 76.5V75.7C50.6 75.7 49.8 0.700049 50.1 0.300049Z" fill="#797979"/>
<path id="Vector_2" d="M50.1001 0.0999838C50.0001 -0.100016 49.9001 -1.62125e-05 49.8001 0.199984C49.9001 1.29998 49.5001 2.29998 48.9001 3.19998C48.2001 4.09998 47.4001 4.79998 46.5001 5.59998C41.7001 9.79998 37.8001 14.9 34.8001 20.5C30.7001 28.1 28.6001 36.3 28.1001 44.9C27.8001 48 29.1001 59 30.1001 62.1C32.8001 70.5 37.6001 77.5 43.8001 83.6C45.3001 85.1 47.0001 86.4 48.6001 87.7C49.1001 87.7 49.1001 87.3 49.3001 86.9C49.5001 86.2 49.7001 85.5 49.8001 84.8L50.9001 76.6L50.1001 0.0999838Z" fill="#8E8E8E"/>
<path id="Vector_3" d="M52.8 90.1C52.9 88.9 53.5 87.8 54.2 86.8C53.5 86.5 53.1 86 52.7 85.4C52.4 84.8 52.1 84.2 51.9 83.6C51.1 81.3 51 78.9 50.8 76.6V75.2C50.5 75.4 50.5 77.3 50.5 77.5C50.3 80 50 82.4 49.5 84.9C49.3 85.9 49.2 86.9 48.6 87.7C48.6 87.8 48.6 87.9 48.7 88.1C49.7 91 49.9 93.9 50.1 96.9V98C50.1 99.3 50 99 51.1 99.5C51.5 99.7 52 99.7 52.5 100C52.8 100 52.9 99.7 52.9 99.5L52.7 97.7V92.7C52.5 91.8 52.7 91 52.8 90.1Z" fill="#C0C0C0"/>
</g>
<defs>
<clipPath id="clip0_790_10103">
<rect width="100" height="100" fill="white"/>
</clipPath>
</defs>
</svg>
