<svg width="100" height="100" viewBox="0 0 100 100" fill="none" xmlns="http://www.w3.org/2000/svg">
<g id="aws" clip-path="url(#clip0_790_7514)">
<path id="Vector" d="M28.2001 41.7C28.2001 42.9 28.3001 43.9 28.6001 44.7C28.9001 45.4 29.2001 46.2 29.7001 47.1C29.9001 47.4 29.9001 47.6 29.9001 47.9C29.9001 48.2 29.7001 48.6 29.3001 48.9L27.2001 50.3C26.9001 50.5 26.6001 50.6 26.3001 50.6C26.0001 50.6 25.6001 50.4 25.3001 50.1C24.8001 49.6 24.4001 49.1 24.1001 48.5C23.8001 47.9 23.4001 47.3 23.1001 46.5C20.5001 49.6 17.2001 51.1 13.3001 51.1C10.5001 51.1 8.3001 50.3 6.6001 48.7C5.0001 47.1 4.1001 45 4.1001 42.3C4.1001 39.5 5.1001 37.2 7.1001 35.4C9.1001 33.7 11.8001 32.8 15.2001 32.8C16.3001 32.8 17.5001 32.9 18.7001 33.1C19.9001 33.3 21.2001 33.5 22.5001 33.8V31.4C22.5001 28.9 22.0001 27.1 20.9001 26.1C19.8001 25.1 18.0001 24.6 15.5001 24.6C14.3001 24.6 13.1001 24.7 11.9001 25C10.7001 25.3 9.5001 25.7 8.3001 26.1C7.8001 26.3 7.4001 26.5 7.1001 26.5C6.9001 26.6 6.7001 26.6 6.6001 26.6C6.1001 26.6 5.9001 26.3 5.9001 25.6V24C5.9001 23.5 6.0001 23.1 6.1001 22.8C6.3001 22.6 6.6001 22.3 7.0001 22.1C8.2001 21.5 9.6001 21 11.2001 20.6C12.8001 20.2 14.6001 20 16.4001 20C20.4001 20 23.3001 20.9 25.1001 22.7C26.9001 24.5 27.9001 27.2 27.9001 30.9L28.2001 41.7ZM14.7001 46.8C15.8001 46.8 16.9001 46.6 18.1001 46.2C19.3001 45.8 20.4001 45.1 21.3001 44.1C21.8001 43.5 22.2001 42.8 22.4001 42C22.6001 41.2 22.7001 40.2 22.7001 39.1V37.7C21.7001 37.5 20.7001 37.3 19.6001 37.1C18.5001 37 17.5001 36.9 16.5001 36.9C14.3001 36.9 12.6001 37.3 11.5001 38.2C10.5001 39.1 10.0001 40.4 10.0001 42C10.0001 43.6 10.4001 44.7 11.2001 45.5C12.0001 46.4 13.1001 46.8 14.7001 46.8ZM41.4001 50.4C40.8001 50.4 40.4001 50.3 40.1001 50.1C39.8001 49.9 39.6001 49.4 39.4001 48.8L31.6001 23C31.4001 22.3 31.3001 21.9 31.3001 21.7C31.3001 21.2 31.6001 20.9 32.1001 20.9H35.4001C36.0001 20.9 36.5001 21 36.7001 21.2C37.0001 21.4 37.2001 21.9 37.4001 22.5L43.0001 44.5L48.2001 22.5C48.4001 21.8 48.6001 21.4 48.8001 21.2C49.1001 21 49.5001 20.9 50.1001 20.9H52.8001C53.4001 20.9 53.9001 21 54.1001 21.2C54.4001 21.4 54.6001 21.9 54.7001 22.5L60.0001 44.8L65.8001 22.5C66.0001 21.8 66.2001 21.4 66.5001 21.2C66.8001 21 67.2001 20.9 67.8001 20.9H70.9001C71.4001 20.9 71.7001 21.2 71.7001 21.7C71.7001 21.9 71.7001 22 71.6001 22.2C71.6001 22.4 71.5001 22.7 71.4001 23L63.4001 48.7C63.2001 49.4 63.0001 49.8 62.7001 50C62.4001 50.2 62.0001 50.3 61.4001 50.3H58.5001C57.9001 50.3 57.4001 50.2 57.2001 50C56.9001 49.8 56.7001 49.3 56.6001 48.7L51.4001 27.2L46.3001 48.6C46.1001 49.3 45.9001 49.7 45.7001 49.9C45.4001 50.1 45.0001 50.2 44.4001 50.2H41.4001V50.4ZM84.1001 51.3C82.4001 51.3 80.6001 51.1 79.0001 50.7C77.3001 50.3 76.0001 49.9 75.2001 49.4C74.7001 49.1 74.3001 48.8 74.2001 48.5C74.1001 48.2 74.0001 47.9 74.0001 47.6V45.9C74.0001 45.2 74.3001 44.9 74.8001 44.9C75.0001 44.9 75.2001 44.9 75.4001 45C75.6001 45.1 75.9001 45.2 76.2001 45.3C77.3001 45.8 78.6001 46.2 79.9001 46.5C81.2001 46.8 82.5001 46.9 83.9001 46.9C86.0001 46.9 87.6001 46.5 88.8001 45.8C90.0001 45.1 90.5001 44 90.5001 42.6C90.5001 41.7 90.2001 40.9 89.6001 40.3C89.0001 39.7 87.9001 39.1 86.2001 38.6L81.4001 37.1C79.0001 36.3 77.2001 35.2 76.1001 33.7C75.0001 32.2 74.4001 30.6 74.4001 28.9C74.4001 27.5 74.7001 26.3 75.3001 25.2C75.9001 24.1 76.7001 23.2 77.7001 22.5C78.7001 21.7 79.8001 21.2 81.2001 20.8C82.5001 20.4 83.9001 20.2 85.4001 20.2C86.1001 20.2 86.9001 20.2 87.6001 20.3C88.4001 20.4 89.1001 20.5 89.8001 20.7C90.5001 20.9 91.1001 21 91.7001 21.2C92.3001 21.4 92.8001 21.6 93.1001 21.8C93.6001 22.1 93.9001 22.3 94.1001 22.6C94.3001 22.9 94.4001 23.2 94.4001 23.7V25.3C94.4001 26 94.1001 26.4 93.6001 26.4C93.3001 26.4 92.9001 26.3 92.3001 26C90.4001 25.1 88.3001 24.7 85.9001 24.7C84.0001 24.7 82.5001 25 81.5001 25.6C80.5001 26.2 79.9001 27.2 79.9001 28.6C79.9001 29.5 80.2001 30.3 80.9001 31C81.6001 31.6 82.8001 32.3 84.6001 32.8L89.3001 34.3C91.7001 35.1 93.4001 36.1 94.5001 37.5C95.5001 38.9 96.0001 40.4 96.0001 42.2C96.0001 43.6 95.7001 44.9 95.1001 46.1C94.5001 47.2 93.7001 48.2 92.7001 49C91.7001 49.8 90.4001 50.4 89.0001 50.9C87.4001 51 85.8001 51.3 84.1001 51.3Z" fill="#757575"/>
<path id="Vector_2" fill-rule="evenodd" clip-rule="evenodd" d="M90.3999 67.4C79.4999 75.5 63.5999 79.8 49.8999 79.8C30.6999 79.8 13.4999 72.7 0.399935 60.9C-0.600065 60 0.299935 58.7 1.49994 59.4C15.5999 67.6 32.9999 72.5 50.9999 72.5C63.0999 72.5 76.4999 70 88.6999 64.8C90.5999 64.1 92.1999 66.1 90.3999 67.4Z" fill="#A7A7A7"/>
<path id="Vector_3" fill-rule="evenodd" clip-rule="evenodd" d="M95 62.2C93.6 60.4 85.8 61.3 82.2 61.8C81.1 61.9 81 61 81.9 60.3C88.2 55.9 98.4 57.2 99.6 58.6C100.8 60.1 99.3 70.4 93.4 75.3C92.5 76.1 91.6 75.7 92 74.7C93.4 71.4 96.4 64 95 62.2Z" fill="#A7A7A7"/>
</g>
<defs>
<clipPath id="clip0_790_7514">
<rect width="100" height="100" fill="white"/>
</clipPath>
</defs>
</svg>
