<svg width="100" height="100" viewBox="0 0 100 100" fill="none" xmlns="http://www.w3.org/2000/svg">
<g id="postman" clip-path="url(#clip0_790_10259)">
<path id="Vector" d="M89.6 19.4C83.6 11.6 75.3 5.69999 66 2.59999C56.6 -0.500014 46.5 -0.800014 37 1.69999C27.5 4.29999 18.9 9.69999 12.4 17.1C5.79997 24.6 1.69997 33.8 0.399967 43.6C-0.900033 53.4 0.799967 63.4 5.19997 72.2C9.59997 81.1 16.5 88.4 25.1 93.3C33.7 98.2 43.5 100.5 53.4 99.8C63.3 99.1 72.7 95.5 80.5 89.5C102.4 72.7 106.4 41.3 89.6 19.4Z" fill="#929292"/>
<path id="Vector_2" d="M66.9001 31.9L45.8 53.1L39.8 47C60.6 26.2 62.7001 28.1 66.9001 31.9Z" fill="white"/>
<path id="Vector_3" d="M45.8 53.7001C45.6 53.7001 45.4 53.6001 45.3 53.5001L39.3 47.5001C39.2 47.4001 39.1 47.2001 39.1 47.0001C39.1 46.8001 39.2 46.6001 39.3 46.5001C59.7 26.0001 62.5 26.9001 67.4 31.3001C67.5 31.4001 67.5 31.4001 67.6 31.5001C67.6 31.6001 67.7 31.7001 67.7 31.8001C67.7 32.0001 67.7 32.2001 67.5 32.3001L46.3 53.5001C46.2 53.6001 46 53.7001 45.8 53.7001ZM40.9 47.0001L45.8 51.9001L65.8 31.9001C65.1 31.0001 64.1 30.5001 63 30.3001C61.9 30.1001 60.8 30.3001 59.9 30.9001C56.2 32.5001 50.4 37.5001 40.9 47.0001Z" fill="#929292"/>
<path id="Vector_4" d="M51.8 59L46 53.1L67.1 32.3C72.8 37.8 64.4 47.1 51.8 59Z" fill="white"/>
<path id="Vector_5" d="M51.7999 59.7001C51.5999 59.7001 51.3999 59.6 51.2999 59.5L45.4 53.8C45.3 53.6 45.3 53.3 45.4 53.1C45.3 52.9 45.3 52.7 45.4 52.6L66.5 31.5C66.6 31.4 66.7999 31.3 67 31.3C67.2 31.3 67.4 31.4 67.5 31.5C68.2 32.1 68.6999 32.9 69.0999 33.8C69.4999 34.7 69.5999 35.6 69.5999 36.5C69.5999 42.1 63.1999 49.2001 52.2999 59.5C52.1999 59.6 51.9999 59.7001 51.7999 59.7001ZM47.2 53.1L51.9 57.8C60.2 49.9 68.1999 41.8 68.1999 36.3C68.1999 35.1 67.8999 34 67.0999 33.1L47.2 53.1Z" fill="#929292"/>
<path id="Vector_6" d="M40 47.1L44.2 51.3C44.2 51.3 44.2 51.4 44.3 51.4V51.5V51.6C44.3 51.6 44.3 51.7 44.2 51.7L35.4 53.6C35.2 53.6 35 53.6 34.9 53.5C34.7 53.4 34.6 53.3 34.5 53.1C34.4 52.9 34.4 52.8 34.4 52.6C34.4 52.4 34.5 52.3 34.6 52.1L39.7 47C39.7 47 39.9 47 40 47.1Z" fill="white"/>
<path id="Vector_7" d="M35.2 54.4001C34.9 54.4001 34.6 54.3001 34.4 54.2001C34.2 54.1001 34 53.9 33.8 53.6C33.6 53.3 33.6 53 33.6 52.6C33.7 52.3 33.8 52.0001 34.1 51.7001L39.2 46.6C39.4 46.4 39.6 46.3 39.9 46.3C40.1 46.3 40.4 46.4 40.6 46.6L44.8 50.8C45 51 45.1 51.4001 45 51.7001C44.9 52.0001 44.6 52.3001 44.3 52.4001L35.5 54.3L35.2 54.4001ZM39.8 48L35.1 52.7001L42.9 51L39.8 48Z" fill="#929292"/>
<path id="Vector_8" d="M78.0999 20.1001C75.0999 17.2001 70.2999 17.1001 67.1999 19.8001C63.9999 22.5001 63.4999 27.3001 65.9999 30.6001C68.4999 34.0001 73.0999 34.9001 76.6999 32.8001L70.9999 27.1001L78.0999 20.1001Z" fill="white"/>
<path id="Vector_9" d="M72.4 34.8001C70.7 34.8001 69 34.2001 67.5 33.3001C66.1 32.3001 65 31.0001 64.3 29.3001C63.6 27.7001 63.5 25.9001 63.8 24.2001C64.1 22.5001 65 20.9001 66.2 19.7001C67.9 18.1001 70.1 17.1001 72.4 17.1001C74.7 17.1001 77 18.0001 78.6 19.7001C78.8 19.8001 78.8 20.0001 78.8 20.2001C78.8 20.3001 78.8 20.4001 78.7 20.5001C78.7 20.6001 78.6 20.7001 78.5 20.7001L72 27.2001L77.1 32.2001C77.2 32.3001 77.2 32.4001 77.3 32.5001C77.3 32.6001 77.3 32.7001 77.3 32.8001C77.3 32.9001 77.3 33.0001 77.2 33.1001C77.1 33.2001 77.1 33.3001 77 33.3001C75.6 34.3001 74.1 34.8001 72.4 34.8001ZM72.4 18.6001C69.4 18.6001 66.8 20.4001 65.7 23.1001C64.6 25.8001 65.2 29.0001 67.3 31.1001C68.3 32.1001 69.7 32.8001 71.1 33.1001C72.5 33.4001 74 33.2001 75.4 32.6001L70.5 27.7001C70.4 27.6001 70.4 27.6001 70.3 27.5001C70.3 27.4001 70.2 27.3001 70.2 27.2001C70.2 27.1001 70.2 27.0001 70.3 26.9001C70.3 26.8001 70.4 26.7001 70.5 26.7001L77 20.2001C75.7 19.2001 74.1 18.7001 72.4 18.6001Z" fill="#929292"/>
<path id="Vector_10" d="M78.2 20.3L71.1 27.4L76.8 33.1C77.4 32.8 77.9 32.4 78.4 31.9C79.9 30.3 80.7 28.2 80.7 26.1C80.6 23.9 79.7 21.8 78.2 20.3Z" fill="white"/>
<path id="Vector_11" d="M76.6 33.5999C76.5 33.5999 76.4 33.5999 76.3 33.5999C76.2 33.5999 76.1 33.4999 76.1 33.3999L70.4 27.6999C70.3 27.5999 70.3 27.5999 70.2 27.4999C70.2 27.3999 70.1 27.2999 70.1 27.1999C70.1 27.0999 70.1 26.9999 70.2 26.8999C70.2 26.7999 70.3 26.6999 70.4 26.6999L77.5 19.6999C77.6 19.5999 77.7 19.4999 77.8 19.4999C77.9 19.3999 78 19.3999 78.2 19.3999C78.3 19.3999 78.4 19.3999 78.6 19.4999C78.7 19.5999 78.8 19.5999 78.9 19.6999C79.7 20.4999 80.4 21.4999 80.8 22.5999C81.3 23.6999 81.5 24.7999 81.5 25.9999C81.5 27.1999 81.3 28.2999 80.8 29.3999C80.3 30.4999 79.7 31.3999 78.9 32.2999C78.4 32.7999 77.8 33.2999 77.2 33.5999C77 33.6999 76.8 33.6999 76.6 33.5999ZM72 27.1999L76.7 31.8999C77 31.6999 77.3 31.3999 77.6 31.0999C79 29.6999 79.8 27.7999 79.8 25.8999C79.8 24.1999 79.2 22.4999 78 21.1999L72 27.1999Z" fill="#929292"/>
<path id="Vector_12" d="M67.6999 32.6999C67.0999 32.1999 66.3999 31.8999 65.5999 31.8999C64.7999 31.8999 64.1 32.1999 63.5 32.6999L44.7 51.5999L47.7999 54.7999L67.8 37.2999C68.1 36.9999 68.2999 36.6999 68.5 36.2999C68.7 35.8999 68.6999 35.4999 68.6999 35.0999C68.6999 34.6999 68.6 34.2999 68.4 33.8999C68.3 33.3999 67.9999 32.9999 67.6999 32.6999Z" fill="white"/>
<path id="Vector_13" d="M47.7001 55.4999C47.5001 55.4999 47.3001 55.3999 47.2001 55.2999L44 52.0999C43.9 51.9999 43.8 51.7999 43.8 51.5999C43.8 51.3999 43.9 51.1999 44 51.0999L62.9001 32.2999C63.4001 31.7999 64.1001 31.3999 64.9001 31.1999C65.7001 31.0999 66.4 31.0999 67.1 31.3999C67.8 31.6999 68.4001 32.1999 68.8001 32.8999C69.2001 33.4999 69.4001 34.2999 69.4001 35.0999C69.4001 35.5999 69.3 36.0999 69 36.5999C68.8 37.0999 68.5 37.4999 68.1 37.7999L48.1 55.2999C48 55.4999 47.8001 55.4999 47.7001 55.4999ZM45.4001 51.5999L47.5 53.6999L67.1 36.6999C67.6 36.2999 67.9001 35.6999 67.9001 34.9999C67.9001 34.3999 67.7 33.6999 67.2 33.2999C66.8 32.8999 66.2 32.5999 65.6 32.5999C65 32.5999 64.4 32.7999 64 33.2999L45.4001 51.5999Z" fill="#929292"/>
<path id="Vector_14" d="M30.1 73.0001C30 73.1001 30 73.2001 30 73.3001C30 73.4001 30 73.5001 30.1 73.5001L30.9 77.1001C30.9 77.3001 30.9 77.5001 30.8 77.7001C30.7 77.9001 30.6 78.1001 30.4 78.2001C30.2 78.3001 30 78.4001 29.8 78.3001C29.6 78.3001 29.4 78.2001 29.2 78.0001L23.5 72.5001L41.3 54.6001H47.5L51.7 58.8001C45.1 64.5001 37.9 69.3001 30.1 73.0001Z" fill="white"/>
<path id="Vector_15" d="M29.7 79.0999C29.2 79.0999 28.8 78.8999 28.5 78.5999L23 73.0999C22.9 72.9999 22.8999 73 22.7999 72.9C22.7999 72.8 22.7 72.6999 22.7 72.5999C22.7 72.4999 22.6999 72.4 22.7999 72.3C22.7999 72.2 22.9 72.0999 23 72.0999L40.9 54.0999C41 53.9999 41.0999 53.9 41.2999 53.9H47.5C47.7 53.8 47.7999 53.8 48 53.9L52.2 58.0999C52.3 58.1999 52.3 58.3 52.4 58.4C52.4 58.5 52.4 58.6 52.4 58.7C52.4 58.8 52.4 58.8999 52.2999 58.9999C52.2999 59.0999 52.1999 59.2 52.0999 59.2L51.7999 59.4999C45.2999 64.9 38.0999 69.4999 30.4 73.1999L31.2 76.5999C31.3 76.8999 31.3 77.1 31.2 77.4C31.1 77.7 31 77.8999 30.9 78.0999C30.7 78.2999 30.4999 78.4999 30.2999 78.5999C30.0999 78.6999 29.8 78.8 29.5 78.8L29.7 79.0999ZM24.6 72.5999L29.5 77.5999C29.5 77.5999 29.6 77.6999 29.7 77.6999C29.8 77.6999 29.8 77.6999 29.9 77.5999V77.5C29.9 77.4 29.9 77.4 29.9 77.4L29 73.5999C28.9 73.2999 29 73.1 29.1 72.8C29.2 72.6 29.4 72.3999 29.7 72.1999C37.2 68.5999 44.2 64.0999 50.5 58.7999L47.0999 55.4H41.5L24.6 72.5999Z" fill="#929292"/>
<path id="Vector_16" d="M19.2001 76.9L23.4 72.7L29.8 79.1L19.6 78.4C19.4 78.4 19.3 78.3 19.1 78.2C19 78.1 18.9 77.9 18.8 77.8C18.8 77.6 18.8 77.4 18.8 77.3C18.9 77.1 19.1001 77 19.2001 76.9Z" fill="white"/>
<path id="Vector_17" d="M29.9 79.8001L19.7 79.1001C19.1 79.0001 18.6 78.6001 18.4 78.1001C18.2 77.5001 18.3 76.9001 18.7 76.5001L22.9 72.3001C23 72.2001 23.2 72.1001 23.4 72.1001C23.6 72.1001 23.8 72.2001 23.9 72.3001L30.3 78.7001C30.4 78.8001 30.4 79.0001 30.4 79.1001C30.4 79.2001 30.4 79.4001 30.3 79.5001C30.2 79.6001 30.1 79.7001 29.9 79.8001ZM19.7 77.4001L28 77.9001L23.4 73.6001L19.7 77.4001Z" fill="#929292"/>
<path id="Vector_18" d="M48 55.2L39.6 56.5L44.5 51.7L48 55.2Z" fill="white"/>
<path id="Vector_19" d="M39.6 57.3C39.5 57.3 39.3001 57.3 39.2001 57.2C39.1001 57.1 39.0001 57 38.9001 56.9C38.8001 56.8 38.8 56.6 38.8 56.5C38.8 56.4 38.8001 56.2 38.9001 56.1L43.7001 51.2C43.8001 51.1 44.0001 51 44.2001 51C44.4001 51 44.6001 51.1 44.7001 51.2L48.2001 54.7C48.3001 54.8 48.3 54.9 48.3 55.1C48.3 55.2 48.3001 55.4 48.2001 55.5C48.2001 55.6 48.1 55.8 48 55.9C48.1 55.9 48 56 47.8 56L39.5 57.3H39.6ZM44.5 52.7L41.8 55.4L46.5 54.7L44.5 52.7Z" fill="#929292"/>
<path id="Vector_20" d="M48 55.2001L42.0999 56C41.8999 56 41.7999 56 41.5999 56C41.4999 55.9 41.2999 55.8001 41.2999 55.7001C41.1999 55.6001 41.2 55.4001 41.2 55.2001C41.2 55.0001 41.3 54.9 41.4 54.8L44.4 51.8L48 55.2001Z" fill="white"/>
<path id="Vector_21" d="M42 56.7001C41.7 56.7001 41.5 56.6 41.2 56.5C41 56.4 40.8 56.2001 40.6 55.9001C40.4 55.6001 40.4 55.3 40.4 55C40.4 54.7001 40.6 54.4 40.8 54.1L43.8 51.1C43.9 51 44.1 50.9001 44.3 50.9001C44.5 50.9001 44.7 51 44.8 51.1L48.3 54.6C48.4 54.7 48.5 54.8 48.5 55C48.5 55.1 48.5 55.3001 48.5 55.4001C48.5 55.5001 48.4 55.7001 48.2 55.7001C48.1 55.8001 47.9 55.8001 47.8 55.9001L42 56.7001ZM42 55.2001L46.4 54.7001L44.4 52.7001L42 55.2001ZM78.2 25.1C78.1 25 78 24.9 77.9 24.8C77.8 24.8 77.6 24.8 77.5 24.8C77.4 24.8 77.4 24.9 77.3 24.9C77.3 25 77.2 25 77.2 25.1C77.2 25.2 77.2 25.4 77.2 25.5C77.5 26.1 77.4 26.8 77 27.4C76.9 27.5 76.9 27.5001 76.9 27.6C76.9 27.7 76.9 27.7 76.9 27.8C76.9 27.9 77 28.1001 77.1 28.2001C77.2 28.2001 77.3 28.2001 77.4 28.2001C77.5 28.2001 77.6 28.2001 77.7 28.2001C77.8 28.2001 77.9 28.1 77.9 28C78.2 27.6 78.5 27.1 78.5 26.5C78.6 26.1 78.5 25.6 78.2 25.1Z" fill="#929292"/>
</g>
<defs>
<clipPath id="clip0_790_10259">
<rect width="100" height="100" fill="white"/>
</clipPath>
</defs>
</svg>
