<svg width="100" height="100" viewBox="0 0 100 100" fill="none" xmlns="http://www.w3.org/2000/svg">
<g id="nodejs">
<path id="Vector" d="M46.3 1.10005C48.8 -0.299951 52 -0.299951 54.5 1.10005C67 8.10005 79.4 15.2001 91.9 22.2001C94.2 23.5 95.8 26.1 95.8 28.8V71.2C95.8 74 94.1 76.7 91.6 78C79.2 85 66.8 92 54.3 99C51.8 100.4 48.5 100.3 46 98.8C42.3 96.6001 38.5 94.5 34.8 92.3C34 91.8 33.2 91.5 32.6 90.7C33.1 90.1 33.9 90 34.6 89.7C36.2 89.2 37.6 88.4 39 87.6C39.4 87.4 39.8 87.4 40.1 87.7C43.3 89.5 46.4 91.4 49.6 93.2C50.3 93.6 51 93.1 51.6 92.7C64 85.9 76.2 79.1 88.3 72.2C88.8 72 89 71.5 89 71C89 57 89 43 89 29.1C89.1 28.5 88.7 28 88.2 27.8C75.8 20.8 63.4 13.8 51.1 6.90005C50.9 6.80005 50.6 6.70005 50.4 6.70005C50.1 6.70005 49.9 6.80005 49.7 6.90005C37.3 13.9 25 20.9 12.6 27.8C12 28 11.7 28.5 11.7 29C11.7 43 11.7 57 11.7 70.9C11.7 71.1 11.7 71.4 11.9 71.6C12 71.8 12.2 72 12.4 72.1C15.7 74 19 75.8 22.3 77.7C24.2 78.7 26.4 79.3 28.5 78.5C30.3 77.9 31.6 76 31.5 74.1C31.5 60.2 31.5 46.3 31.5 32.4001C31.5 31.8001 32 31.3 32.6 31.3C34.2 31.3 35.8 31.3 37.4 31.3C38.1 31.3 38.5 31.9 38.4 32.6C38.4 46.6 38.4 60.6 38.4 74.6C38.4 78.3 36.9 82.4 33.4 84.2C29.2 86.4 23.9 85.9 19.7 83.8C16.1 82 12.6 79.8 9 77.9C6.7 76.7001 5 74 5 71.2V28.8C5 26 6.6 23.4 9 22.1C21.4 15.1 33.9 8.10005 46.3 1.10005Z" fill="#A8A8A8"/>
<path id="Vector_2" d="M57.1 30.4C62.5 30.1 68.3 30.2 73.2 32.9C77 34.9 79.1 39.2 79.1 43.4C79 44 78.4 44.3 77.9 44.2C76.3 44.2 74.8 44.2 73.2 44.2C72.5 44.2 72.1 43.6 72.1 43C71.6 41 70.6 39 68.7 38C65.8 36.5 62.4 36.6 59.3 36.7C57 36.8 54.5 37 52.6 38.4C51.1 39.4 50.6 41.5 51.2 43.2C51.7 44.4 53.1 44.8 54.2 45.1C60.7 46.8 67.6 46.6 74 48.9C76.7 49.8 79.2 51.6 80.2 54.4C81.4 58.1 80.9 62.6 78.2 65.6C76.1 68.1 72.9 69.4 69.8 70.1C65.5 71 61.2 71 57 70.6C53 70.1 48.9 69.1 45.9 66.4C43.3 64.1 42 60.6 42.1 57.2C42.1 56.6 42.7 56.2 43.3 56.3C44.9 56.3 46.5 56.3 48 56.3C48.6 56.3 49.1 56.8 49.1 57.4C49.4 59.3 50.1 61.3 51.8 62.5C55 64.6 59.1 64.4 62.7 64.5C65.8 64.4 69.2 64.3 71.7 62.3C73 61.1 73.4 59.2 73 57.6C72.6 56.2 71.2 55.6 69.9 55.1C63.5 53.1 56.5 53.8 50.1 51.5C47.5 50.6 45 48.9 44 46.2C42.6 42.4 43.2 37.8 46.2 34.9C49.1 31.9 53.2 30.8 57.1 30.4Z" fill="#A8A8A8"/>
</g>
</svg>
