<svg width="100" height="100" viewBox="0 0 100 100" fill="none" xmlns="http://www.w3.org/2000/svg">
<g id="github">
<path id="Vector" d="M50 1C22.4 1 0 23.4 0 51C0 73.1 14.3 91.8 34.2 98.4C36.7 98.9 37.6 97.3 37.6 96C37.6 94.8 37.6 90.9 37.5 86.7C23.6 89.7 20.7 80.8 20.7 80.8C18.4 75 15.1 73.5 15.1 73.5C10.6 70.4 15.4 70.5 15.4 70.5C20.4 70.9 23.1 75.7 23.1 75.7C27.6 83.3 34.8 81.1 37.7 79.9C38.1 76.7 39.4 74.5 40.9 73.2C29.8 71.9 18.1 67.6 18.1 48.5C18.1 43 20.1 38.6 23.3 35.1C22.8 33.8 21.1 28.8 23.8 21.9C23.8 21.9 28 20.6 37.6 27C41.6 25.9 45.9 25.3 50.1 25.3C54.3 25.3 58.6 25.9 62.6 27C72.1 20.5 76.3 21.9 76.3 21.9C79 28.8 77.3 33.9 76.8 35.1C80 38.6 81.9 43.1 81.9 48.5C81.9 67.7 70.2 71.9 59.1 73.2C60.9 74.8 62.5 77.8 62.5 82.5C62.5 89.2 62.4 94.6 62.4 96.2C62.4 97.5 63.3 99.1 65.8 98.6C85.7 91.8 100 73.1 100 51C100 23.4 77.6 1 50 1Z" fill="#757575"/>
<path id="Vector_2" d="M18.7 72.2C18.6 72.4 18.2 72.5 17.8 72.4C17.4 72.2 17.2 71.9 17.4 71.6C17.5 71.3 17.9 71.3 18.3 71.4C18.6 71.6 18.9 72 18.7 72.2ZM21.2 74.4C21 74.6 20.5 74.5 20.2 74.2C19.9 73.9 19.8 73.4 20.1 73.2C20.3 73 20.8 73.1 21.1 73.4C21.4 73.7 21.4 74.2 21.2 74.4ZM22.9 77.2C22.6 77.4 22.1 77.2 21.8 76.8C21.5 76.4 21.5 75.8 21.8 75.6C22.1 75.4 22.6 75.6 22.9 76C23.2 76.5 23.2 77 22.9 77.2ZM25.7 80.5C25.4 80.8 24.8 80.7 24.4 80.3C24 79.9 23.8 79.3 24.1 79C24.4 78.7 25 78.8 25.4 79.2C25.9 79.6 26 80.2 25.7 80.5ZM29.4 81.6C29.3 82 28.7 82.2 28.2 82C27.6 81.8 27.3 81.4 27.4 81C27.5 80.6 28.1 80.4 28.7 80.6C29.2 80.7 29.5 81.2 29.4 81.6ZM33.6 82C33.6 82.4 33.1 82.8 32.5 82.8C31.9 82.8 31.4 82.5 31.4 82.1C31.4 81.7 31.9 81.3 32.5 81.3C33.1 81.3 33.6 81.6 33.6 82ZM37.7 81.9C37.8 82.3 37.4 82.7 36.8 82.8C36.2 82.9 35.7 82.7 35.6 82.3C35.5 81.9 35.9 81.5 36.5 81.4C37.1 81.2 37.7 81.5 37.7 81.9Z" fill="#757575"/>
</g>
</svg>
