<svg width="100" height="100" viewBox="0 0 100 100" fill="none" xmlns="http://www.w3.org/2000/svg">
<g id="pwa" clip-path="url(#clip0_790_10398)">
<path id="Vector" d="M73.6001 61.9L76.5001 54.6H84.8001L80.8001 43.5L85.8001 31L100 68.7H89.5001L87.1001 62H73.6001V61.9Z" fill="#757575"/>
<path id="Vector_2" d="M64.6999 68.7L79.9 31H69.8L59.4 55.3L52 31H44.2999L36.4 55.3L30.7999 44.2L25.7 59.8L30.7999 68.6H40.7L47.9 46.8L54.7 68.6H64.6999" fill="#757575"/>
<path id="Vector_3" d="M9.6 55.7H15.8C17.7 55.7 19.4 55.5 20.8 55.1L22.4 50.2L26.9 36.4C26.6 35.9 26.2 35.3 25.7 34.9C23.4 32.3 20 31 15.6 31H0V68.7H9.6V55.7ZM17.8 39.7C18.7 40.6 19.1 41.8 19.1 43.3C19.1 44.8 18.7 46 17.9 46.9C17 47.9 15.4 48.4 13.1 48.4H9.6V38.3H13.2C15.3 38.3 16.9 38.8 17.8 39.7Z" fill="#757575"/>
</g>
<defs>
<clipPath id="clip0_790_10398">
<rect width="100" height="100" fill="white"/>
</clipPath>
</defs>
</svg>
