<svg width="100" height="100" viewBox="0 0 100 100" fill="none" xmlns="http://www.w3.org/2000/svg">
<g id="firebase">
<path id="Vector" d="M61.4 36.0999L51.4 45.4L42.1 26.7L46.9 15.8999C48.1 13.7999 50.1 13.6999 51.3 15.8999L61.4 36.0999Z" fill="#ABABAB"/>
<path id="Vector_2" d="M51.4 45.4L14 80.1999L42.1 26.7L51.4 45.4Z" fill="#979797"/>
<path id="Vector_3" d="M72.4 21.8999C74.2 20.1999 76 20.7999 76.5 23.1999L86.2 79.7999L53.9 99.0999C52.8 99.6999 49.8 99.9999 49.8 99.9999C49.8 99.9999 47.1 99.6999 46 99.0999L14 80.1999L72.4 21.8999Z" fill="#C8C8C8"/>
<path id="Vector_4" d="M42.1 26.7L14 80.2L26.5 1.99997C27 -0.400026 28.3 -0.700026 29.6 1.49997L42.1 26.7Z" fill="#ABABAB"/>
</g>
</svg>
